<svg viewBox="0 0 284.131 262.498" xmlns="http://www.w3.org/2000/svg">
  <path d="M21 261.401c0-.707 3.344-.835 10.25-.393 6.572.42 16.17.103 26.75-.885 9.075-.848 21.736-1.966 28.136-2.486 8.477-.69 12.55-1.481 15-2.916 3.495-2.048 13.011-3 30.614-3.066l8.25-.03v-9l-3.75-.093c-7.984-.198-13.207.343-25.75 2.666-14.732 2.728-14.81 2.737-14.088 1.57.291-.472 2.68-1.134 5.309-1.472 5.183-.667 7.165-1.037 14.779-2.762 5.182-1.174 23.62-2.766 24.5-2.115.275.203.657 4.383.85 9.288s.751 8.917 1.242 8.917c.504 0 .797-9.481.671-21.75-.122-11.962.108-24.296.512-27.408 1.033-7.97 4.229-17.775 9.325-28.608 2.407-5.117 4.27-9.739 4.138-10.27s2.622-3.552 6.117-6.714l6.355-5.75-5.855.081c-7.26.1-10.996-.895-14.015-3.73-3.681-3.459-2.73-4.4 1.071-1.062 3.184 2.795 3.969 3 11.75 3.076 6.78.065 8.76-.271 10.588-1.802 1.238-1.036 2.25-2.238 2.25-2.673s-.54-.25-1.2.41-3.743 1.2-6.852 1.2c-6.307 0-12.19-3.018-12.74-6.535-.293-1.869-.22-1.86 1.492.16 2.381 2.81 6.995 5.682 8.066 5.02.469-.29 3.444-.631 6.612-.76 5.397-.218 5.99-.497 9.441-4.436 3.622-4.135 17.29-28.562 18.716-33.449 1.097-3.758 8.187-17.607 12.559-24.53 7.166-11.347 9.138-17.364 9.063-27.658-.043-5.877-2.277-11.823-4.432-11.796-.8.01-.72.335.236.94 1.25.79 1.191 1.22-.405 2.984-1.026 1.134-2.643 2.061-3.594 2.061-2 0-3.306-3.632-1.605-4.463.629-.308.208-.391-.935-.186-2.636.472-4.835-1.224-5.222-4.03-.229-1.655.561-2.588 3.286-3.88 5.204-2.47 3.664-2.837-1.786-.426-5.83 2.579-10.7 6.64-10.7 8.925 0 3.198-2.004 7.585-3.92 8.58-1.037.54-7.02 4.62-13.295 9.067-11.499 8.15-15.977 10.413-20.605 10.413-1.387 0-3.279.685-4.204 1.522s-4.335 2.017-7.579 2.623c-8.195 1.53-14.818 4.237-19.723 8.062-2.295 1.79-3.499 2.399-2.674 1.353s3.525-3.219 6-4.828c5.627-3.66 2.302-2.823-7.998 2.011-9.676 4.542-25.53 15.257-22.574 15.257.443 0-.843 1.824-2.857 4.054-4.927 5.453-6.429 8.786-4.514 10.017.979.628.458.738-1.615.341-2.797-.535-3.21-.253-4.808 3.293-.962 2.133-1.855 4.602-1.985 5.486s-.813 2.303-1.519 3.154c-2.224 2.679-1.015 6.112 2.284 6.488l2.913.332-2.913 2.382c-3.233 2.643-1.35 3.498 2.21 1.004 1.139-.797 2.927-1.399 3.973-1.337s3.884-.238 6.304-.664c3.939-.695 4.33-.593 3.732.966-.578 1.507-.229 1.654 2.588 1.09 1.79-.358 5.849-2 9.018-3.65 7.051-3.67 7.744-2.352.762 1.448-2.75 1.497-5 2.912-5 3.144 0 .688 10.136-3.485 14.924-6.145 2.762-1.534 4.662-2.071 5.059-1.43.388.629 4.101-.682 9.575-3.381 9.077-4.475 13.79-6.27 25.426-9.683 3.567-1.046 8.63-3.235 11.25-4.864 5.596-3.479 6.518-2.452 1.015 1.13-4.25 2.767-8.235 4.4-13.072 5.358-5.12 1.014-15.436 6.01-17.803 8.622-1.169 1.29-2.667 3.396-3.33 4.68s-1.461 2.082-1.772 1.771.632-2.374 2.095-4.585 2.407-4.02 2.097-4.02c-1.267 0-6.202 2.978-7.473 4.51-.75.902-4.654 3.448-8.677 5.656s-7.315 4.167-7.315 4.354c0 1.333 13.114-4.417 14.3-6.27.44-.688 1.258-1.25 1.818-1.25s.092 1.3-1.04 2.892c-1.567 2.2-2.122 4.713-2.319 10.499-.264 7.777-1.758 10.844-1.758 3.608 0-2.2-.189-4-.419-4-1.777 0-3.304 1.418-3.031 2.815 1.295 6.63 1.643 7.238 5.215 9.099l3.735 1.946-5.614-.556c-3.087-.305-5.864-.149-6.172.349s2.725.954 6.864 1.017c7.47.113 8.426-.266 6.222-2.47-.66-.66-.773-1.193-.25-1.185 1.338.022 3.195 1.302 3.604 2.485.19.55 1.47 1.037 2.846 1.083s5.2.21 8.5.365c5.767.271 5.848.311 2.1 1.034-2.146.414-4.846.582-6 .374s-1.541-.112-.858.214c.843.402.946 1.144.32 2.314-.507.948-1.425 7.324-2.04 14.17-1.142 12.712-3.333 22.931-5.656 26.37-.898 1.331-1.116 3.8-.704 8 .446 4.55.307 5.807-.553 5.006-.632-.588-1.235-3.981-1.34-7.54-.15-5.047.27-7.231 1.91-9.93 2.628-4.325 4.186-11.635 4.98-23.36.338-5.006.989-9.831 1.445-10.723.674-1.318.131-1.733-2.887-2.209-2.045-.322-5.36-.997-7.367-1.5-3.448-.862-4.11-.588-12 4.984-14.163 10.002-20.37 16.14-23.924 23.653-5.006 10.587-11.917 32.47-10.717 33.932.72.878.558 1.414-.559 1.843-1.553.596-3.267 4.112-2.813 5.774.128.47-.193 1.37-.714 2-1.754 2.123-4.939 11.641-4.073 12.176.472.292 2.1.22 3.617-.162 2.486-.624 2.565-.768.796-1.46-1.851-.724-1.838-.772.228-.838 1.205-.039 2.486.407 2.846.99.42.68 2.681.814 6.309.374 3.11-.376 5.342-.354 4.961.05-1.406 1.49-16.055 2.506-44.633 3.093-28.99.596-45.831 2.057-45.508 3.948.092.536-2.046 1.07-4.75 1.185S0 259.401 0 259.222c0-.784 11.156-3.673 18-4.661 22.033-3.182 35.823-4.051 39.518-2.492 2.618 1.104 18.652.66 20.119-.558.63-.524 1.698-2.4 2.372-4.17s1.812-4.566 2.53-6.216c1.725-3.963 2.953-9.197 1.937-8.253-.442.41-1.62 3.062-2.616 5.892-2.002 5.684-2.537 6.518-3.54 5.515-.373-.374.077-2.264 1-4.2s1.68-4.605 1.68-5.93.42-2.666.934-2.984c1.502-.928 4.219-11.482 3.522-13.679-.385-1.21-.067-2.476.798-3.185 1.256-1.029 2.603-5.161 6.81-20.89.748-2.796 2.45-4.835 6.877-8.242 3.235-2.49 6.484-5.886 7.22-7.547s2.021-3.238 2.857-3.504c1.713-.543 5.612-7.196 4.733-8.076-.536-.535-8.072.432-32.58 4.181-5.68.87-14.681 3.117-20 4.995-15.181 5.359-20.86 6.616-23.237 5.144-3.284-2.033-1.841-4.852 5.478-10.708l6.913-5.53-3.413-.5c-7.173-1.051-3.621-7.441 6.452-11.607 2.49-1.03 4.725-2.552 4.968-3.383s.806-2.406 1.253-3.501c.498-1.219-1.871.236-6.104 3.75-7.26 6.026-8.482 6.648-8.482 4.319 0-1.35 9.717-10.578 11.139-10.578 6.592-3.552 14.44-13.282 19.854-20.382l6.507-6.905 1-2.898 2-2.026c5.265-5.962 11.381-9.427 18.059-13.418 8.71-4.895 17.475-9.152 26.988-11.963 9.107-2.792 27.913-7.685 31.453-8.184 3.389-.477 8.716-3.841 23.621-14.917 6.14-4.561 7.204-5.813 7.727-9.08.55-3.435 5.68-10.045 7.902-10.182.413-.025 1.11-.046 1.55-.046s.62-1.524.403-3.386.132-4.37.776-5.574 1.354-4.518 1.577-7.364c.861-10.981 1.666-16.004 2.783-17.377 3.123-2.389 4.133-7.199 7.734-8.546 2.801-1.048 8.305.436 8.305.436 4.568.24 8.939.957 9.714 1.595 4.293 3.533 6.606 6.072 8.296 9.104 1.039 1.864 2.716 4.216 3.728 5.227 1.98 1.98 1.55 4.885-.723 4.885-.766 0-1.393.45-1.393 1 0 1.002 1.372 1.387 3.792 1.065 1.053-.14 1.054.208.01 1.881-.714 1.143-2.345 2.054-3.677 2.054-2.374 0-2.37.018.49 2.157 1.587 1.186 7.033 6.225 12.103 11.199s9.446 8.814 9.723 8.536-.832-1.97-2.468-3.76S262 42.188 262 41.806s-1.575-2.007-3.5-3.612-3.5-3.74-3.5-4.745-.45-1.826-1-1.826-1-.707-1-1.571c0-1.397.167-1.405 1.5-.072.825.825 1.5 1.934 1.5 2.465s.675 1.223 1.5 1.54 1.5 1.265 1.5 2.107.45 1.531 1 1.531c1.06 0 5 3.603 5 4.572 0 .314.635 1.206 1.41 1.982s1.615 1.981 1.864 2.678.795.95 1.214.56c.8-.744-3.593-7.266-11.117-16.503-2.467-3.03-13.463-14.308-11.8-13.664.404.156.687-.37.847-.141s10.643 11.167 13.677 15.017c6.437 8.17 15.08 21.411 19.674 30.14 6.632 12.601 4.18 11.416-13.928-6.734-18.224-18.266-22.651-20.904-35.091-20.905-7.55 0-7.75.062-7.75 2.44 0 1.343-.45 2.72-1 3.06s-1 1.568-1 2.73-.665 2.847-1.479 3.745c-1.31 1.449-1.25 2.059.53 5.38 4.799 8.954 2.587 20.853-6.845 36.808-3.36 5.685-8.2 14.836-10.755 20.336-4.432 9.542-8.576 17.855-14.329 28.74-3.455 6.537-13.249 17.906-21.33 24.76-3.568 3.025-7.09 6.85-7.826 8.5s-3.68 7.95-6.537 14c-7.23 15.307-7.938 19.56-7.885 47.363.042 21.754.176 23.46 1.941 24.75 2.033 1.487 9.42 1.698 13.514.387 2.124-.68 1.86-.816-1.75-.9-5.893-.139-5.37-2.1.559-2.1 5.43 0 9.708 2.293 7.269 3.896-3.012 1.979-41.13 3.33-51.578 1.828-12.348-1.775-10.621-3.411 4.156-3.94 4.486-.16 7.947.048 7.691.462s-3.251.799-6.656.853c-4.615.075-5.555.304-3.691.9 3.083.988 14.192 1.195 19.25.359 3.318-.549 3.75-.95 3.75-3.49 0-2.079-.482-2.858-1.75-2.832-.963.02-8.987.44-17.833.935-13.48.753-16.656 1.237-19.627 2.99-2.802 1.653-6.347 2.294-16.917 3.06-7.355.533-17.873 1.406-23.373 1.94-13.46 1.308-39.5 1.185-39.5-.185zm29.185-8.64c-1.217-.773-6.185-.387-6.185.48 0 .21 1.687.377 3.75.368 2.39-.01 3.273-.317 2.435-.849zm37.968-29.147c.91-2.744 1.333-4.99.94-4.99s-1.431 2.25-2.31 5-1.304 4.996-.942 4.99 1.403-2.255 2.312-5zm6.798-20.49c3.51-9.357 4.9-11.784 9.303-16.25 5.986-6.07 5.607-6.763-.958-1.75-2.521 1.925-4.932 3.5-5.358 3.5-.906 0-2.86 5.448-5.818 16.23-3.829 13.954-2.82 13.338 2.831-1.73zM114.5 176.23c1.1-.848 1.55-1.553 1-1.568s-2.35 1.12-4 2.521c-3.072 2.61-.605 1.826 3-.953zm-73 1.395c.34-.55.168-1-.382-1s-1.278.45-1.618 1-.168 1 .382 1 1.278-.45 1.618-1zm21.274-11.66c4.551-2.387 9.362-4.34 10.691-4.34s2.708-.47 3.063-1.046c1.145-1.852-9.661.18-11.677 2.195-1.018 1.018-2.311 1.851-2.874 1.851-1.574 0-16.772 9.041-18.207 10.831-.699.871 1.43.069 4.73-1.784s9.723-5.321 14.274-7.708zm-2.04 6.91c4.27-2.063 7.99-3.975 8.266-4.25 1.468-1.468 14.907-6.816 17.33-6.896 1.558-.052 3.583-.533 4.5-1.069 1.24-.723.334-.982-3.52-1.005-4.562-.026-7.106.955-21 8.101-17.592 9.048-17.29 8.87-14.993 8.87.908 0 5.146-1.688 9.417-3.75zm4.766-6.498c1.258-1.339-12.64 6.145-14 7.54-.55.564 2.15-.662 6-2.725s7.45-4.229 8-4.815zm53.542 4.602c2.2-1.456 3.774-2.872 3.499-3.147-.523-.522-8.541 4.46-8.541 5.307 0 .928 1.065.472 5.042-2.16zm-55.53-9.167c-.513-.528-18.315 8.685-19.036 9.851-.373.603 3.826-1.297 9.33-4.221s9.872-5.458 9.706-5.63zm54.488 5.754c0-.583-.45-.781-1-.441s-1 .816-1 1.059.45.44 1 .44 1-.476 1-1.058zm-24.413-2.934c2.798-.983 6.488-2.512 8.2-3.397 3.938-2.037 5.32-2.024 2.713.025-1.943 1.526-1.928 1.55.5.841 1.375-.401 4.075-1.593 6-2.648l3.5-1.918-3 .56c-1.65.307-5.7.698-9 .868-5.735.295-13.383 3.112-12.055 4.44.347.347-.85 1.467-2.657 2.488-3.376 1.906-2.939 1.811 5.799-1.259zm10.155.411c4.212-.87 9.35-2.445 11.418-3.5 4.307-2.197 4.84-2.298 4.84-.918 0 .55-.676 1-1.5 1s-1.5.402-1.5.894c0 .518 1.75.5 4.167-.043 2.292-.515 4.727-.722 5.411-.46.938.36 1.027-.279.364-2.592-.485-1.689-1.02-3.21-1.189-3.379-.682-.681-9.325 1.787-10.74 3.068-2.072 1.875-6.225 3.461-14.514 5.545-8.863 2.227-6.84 2.468 3.242.385zm-34.25-.407c.351-.567-.05-.734-.94-.393-1.733.665-2.05 1.382-.611 1.382.517 0 1.216-.445 1.552-.989zM55.5 163.624c.34-.55.168-1-.382-1s-1.278.45-1.618 1-.168 1 .382 1 1.278-.45 1.618-1zm52-10.426c10.69-2.998 25.306-9.102 24.27-10.137-.233-.233-2.28.474-4.549 1.57s-4.615 1.993-5.213 1.993-2.758.83-4.798 1.843-5.96 2.43-8.71 3.147-5.428 1.688-5.95 2.157c-1.243 1.115-.951 1.082 4.95-.573zm3-4.038c1.65-.756 2.325-1.39 1.5-1.41-.825-.02-2.85.582-4.5 1.338s-2.325 1.39-1.5 1.41 2.85-.583 4.5-1.338zm-43.128-1.07c2.545-.381 4.628-1.092 4.628-1.58s-.338-.774-.75-.636-.863-.088-1-.5c-.79-2.371.247-4.343 4.551-8.647 2.643-2.643 6.207-7.744 7.927-11.345s3.982-7.154 5.029-7.9c2.376-1.697 5.798-6.859 4.545-6.859-.51 0-4.355 3.158-8.543 7.018-8.263 7.613-16.166 17.427-18.511 22.982-.813 1.925-2.415 4.82-3.561 6.433-1.6 2.251-1.72 2.793-.514 2.33.864-.331 3.653-.915 6.199-1.296zm24.446-3.951c.283-.284-.264-.515-1.217-.515-2.323 0-11.602 4.037-11.602 5.049 0 .743 11.668-3.384 12.82-4.534zm-.157 3.802c2.936-.925 5.338-2.08 5.338-2.567 0-1.021-2.566-.306-8.392 2.34-5.132 2.331-3.908 2.422 3.054.227zm37.477-.393c1.299-1.142 1.797-1.79 1.108-1.44-5.73 2.913-6.589 3.504-5.108 3.51.902.003 2.702-.929 4-2.07zm-18.889-1.577c1.513-.77 2.75-1.618 2.75-1.886 0-.57-6.18 1.926-8.74 3.532-1.473.923-1.352.992.74.428 1.375-.371 3.738-1.304 5.25-2.074zm-32.797.492c1.401-.638 2.547-1.55 2.547-2.025s-1.35-.168-3 .686c-4.499 2.326-4.127 3.426.453 1.34zm25.547-.898c0-.583-.45-.781-1-.441s-1 .816-1 1.059.45.44 1 .44 1-.476 1-1.058zm-25.689-4.941c.514 0 .374.675-.31 1.5-1.549 1.866-.013 1.96 2.46.152 1.277-.933 1.489-1.566.69-2.059-.632-.391-1.163-1.922-1.178-3.402l-.027-2.691-3.473 3.735c-3.953 4.252-5.035 8.298-1.284 4.804 1.204-1.122 2.609-2.04 3.122-2.04zm45.594 1.107c3.1-1.604 4.931-3.091 4.294-3.485-1.253-.774-11.198 4.096-11.198 5.483 0 1.348 1.002 1.058 6.904-1.998zm-32.405-32.108c.783-1.265-.541-1.265-2.5 0-1.292.836-1.266.972.191.985.93.008 1.97-.435 2.31-.985zm185.25-52.442c-.961-.703-1.748-1.791-1.748-2.418s-.45-1.14-1-1.14-1 .309-1 .686c0 1.187 4.313 5.334 4.919 4.729.318-.318-.209-1.154-1.17-1.857zM271 52.623c0-.55-.477-1-1.059-1s-.78.45-.441 1 .816 1 1.059 1 .441-.45.441-1zm1.183-3.216c-.717-.718-1.183-.777-1.183-.15 0 1.334 1.183 2.517 1.85 1.85.284-.285-.016-1.05-.667-1.7zm-59.996-2.467c-.722-.289-1.584-.253-1.916.08s.258.568 1.312.524c1.165-.048 1.402-.285.604-.604zm8.202-2.89c.421-1.096.1-1.474-1.06-1.25-.915.178-1.85.886-2.08 1.573-.612 1.839 2.431 1.526 3.14-.322zm-4.524-6.959c.257-.257-.08-.468-.748-.468-1.429 0-7.117 2.829-7.117 3.54 0 .504 7.037-2.243 7.865-3.072zm6.322-3.15c-.722-.29-1.584-.254-1.916.078s.258.569 1.312.525c1.165-.048 1.402-.285.604-.604zM244 32.622c0-.55-.476-1-1.059-1s-.78.45-.44 1 .816 1 1.058 1 .441-.45.441-1zm-29.75-1.986c.963-.008 1.75-.464 1.75-1.014 0-1.467-3.13-1.155-6 .598l-2.5 1.528 2.5-.55c1.375-.301 3.288-.555 4.25-.562zM217 26.42c1.01-.624.219-.754-2.413-.398-2.153.29-4.389 1.003-4.97 1.584-1.274 1.274 5.047.26 7.383-1.186zm5.417-1.44c.918-2.392.357-2.553-5.044-1.443-4.075.837-4.258.959-1.123.744 2.54-.173 3.75.163 3.75 1.043 0 1.848 1.667 1.61 2.417-.344zm8.026-1.293c1.698-1.876 1.64-1.958-1.892-2.62-4.349-.816-5.085-.31-3.596 2.47 1.393 2.605 3.221 2.655 5.488.15zm-14.525-1.632c2.904-.862 5.117-1.73 4.919-1.93-.594-.593-10.258 1.636-11.286 2.604-1.387 1.306.304 1.127 6.367-.674zm20.264-4.265c-1.475-.184-3.393-.972-4.263-1.752s-1.873-1.127-2.23-.77 1.012 1.889 3.043 3.403c3.357 2.504 3.804 2.604 4.912 1.103 1.046-1.416.838-1.698-1.462-1.984zm-15.603.318c3.078-1.096 3.399-1.406 1.492-1.44-2.373-.044-7.568 1.343-11.571 3.087-3.2 1.394 5.562-.037 10.079-1.647zm3.609.832c-.722-.289-1.585-.253-1.917.08s.258.568 1.312.524c1.165-.048 1.402-.284.605-.604zm-4.69-4.163c-2.11-.42-10.498 1.825-10.498 2.811 0 .388 2.753-.008 6.117-.88s5.336-1.74 4.38-1.931zm.204-2.528c1.316-1.326-7.091.503-8.532 1.856-1.065 1-.427 1.02 3.202.1 2.492-.634 4.89-1.513 5.33-1.956zm21.298 2.374c0-.55-.477-1-1.06-1s-.78.45-.44 1 .816 1 1.059 1 .44-.45.44-1zm-5.44-4.098c.72-1.163-.785-1.147-3.91.041-1.947.74-2.613.597-3.1-.67-.791-2.063 1.083-3.238 5.2-3.257 2.765-.013 3.25.341 3.25 2.377 0 1.317.635 2.637 1.411 2.935 1.123.431 1.241-.051.58-2.36-1.3-4.529-1.717-4.812-6.242-4.237-6.448.819-7.977 2.88-4.894 6.595 1.003 1.208 1.882 1.313 4.208.502 1.617-.563 3.19-1.43 3.497-1.926zM219.5 9.344c.673-.684.401-.804-.832-.368-1.008.356-2.92.647-4.25.647s-2.419.44-2.419.975c0 1.193 6.093.174 7.5-1.254zm11.687-.404c-.721-.289-1.584-.253-1.916.08s.258.568 1.312.524c1.165-.048 1.402-.285.604-.604zm-75.188 242.68c0-.578 3.167-1 7.5-1s7.5.422 7.5 1-3.166 1-7.5 1-7.5-.422-7.5-1zm-16.15-17.75c-.497-2.468-.233-7.25.4-7.25.413 0 .75 1.8.75 4 0 3.472-.705 5.464-1.15 3.25zm3.986-71.442c-1.465-.505-2.899-1.53-3.186-2.28-.462-1.203 2.034-.318 6.267 2.222 1.325.795-.824.835-3.08.058zm10.664-.266c-4.513-1.346-8.87-3.505-8.276-4.1.218-.217 2.832.53 5.81 1.662 5.167 1.964 8.367 2.076 12.216.43.998-.427 1.75-.32 1.75.25 0 .85-2.455 1.885-6.5 2.74-.55.116-2.8-.326-5-.982zm14.841-13.216c.371-.37 1.684-.735 2.917-.81s3.368-.47 4.743-.878c2.398-.711 2.421-.678.559.81-1.839 1.47-9.644 2.304-8.218.878zm-1.97-4.766c-1.722-.75-3.436-1.857-3.809-2.461-.953-1.542.573-1.312 2.88.433 1.068.807 2.755 1.468 3.75 1.468s1.809.45 1.809 1c0 1.296-.82 1.218-4.63-.44zm6.635-1.31c.003-.412 1.915-.854 4.25-.982 3.038-.166 3.818.043 2.745.735-1.773 1.142-7.002 1.327-6.995.247zm-1.755-7.912c-.688-.278-1.25-.875-1.25-1.328 0-1.022 3.831-.092 4.574 1.11.579.936-1.248 1.055-3.324.218zm5.75.271c0-.214 1.543-.57 3.43-.79s3.21-.045 2.94.39c-.483.783-6.37 1.153-6.37.4zm-50-6.646c5.225-2.198 11.975-5.217 15-6.709 7.173-3.536 7.717-3.736 6.44-2.368-1.51 1.616-27.193 13.119-29.239 13.095-.936-.011 2.573-1.82 7.798-4.018zM124 126.261c7.498-3.732 9.998-4.763 9.998-4.123 0 .696-14.063 7.49-15.36 7.42-.627-.033 1.786-1.517 5.362-3.297zm14.997 2.301c3.174-2.174 17.23-9.046 17.647-8.629.484.484-16.953 9.696-18.305 9.672-.462-.009-.166-.478.66-1.043zm-28.504-1.063c.304-.786 2.044-1.412 4.044-1.455 4.129-.09 3.303 1.257-1.34 2.186-2.514.503-3.117.34-2.704-.731zm74.004.121c2.753-1.183 3.731-1.183 3 0-.34.55-1.604.968-2.809.93-2.112-.068-2.119-.101-.19-.93zm-7-1c-.34-.55-.141-1 .441-1s1.06.45 1.06 1-.2 1-.442 1-.719-.45-1.059-1zm-42-6c.34-.55 1.068-1 1.618-1s.722.45.382 1-1.068 1-1.618 1-.722-.45-.382-1zm56.771-10.604c.333-.332 1.195-.368 1.917-.079.798.32.56.556-.604.604-1.054.044-1.645-.193-1.313-.525zm-76.77-2.396c.34-.55 1.04-1 1.558-1s.941.45.941 1-.701 1-1.559 1-1.28-.45-.94-1zm21.5-18.518c1.924-.89 5.75-1.803 8.5-2.032l5-.414-5.5 1.346c-11.855 2.901-11.919 2.91-8 1.1zm23.5-1.487c-1.25-.54.309-.652 4.15-.297 3.437.316 7.52.09 9.25-.513 3.093-1.078 4.517.057 1.518 1.208-2.306.885-12.585.61-14.918-.398zm89.5-58.995c0-.55.198-1 .44-1s.72.45 1.06 1 .14 1-.442 1-1.059-.45-1.059-1z"/>
</svg>
